{
    "asset" : {
        "generator" : "Khronos glTF Blender I/O v0.9.36",
        "version" : "2.0"
    },
    "scene" : 0,
    "scenes" : [
        {
            "name" : "Scene",
            "nodes" : [
                0,
                1
            ]
        }
    ],
    "nodes" : [
        {
            "mesh" : 0,
            "name" : "Text",
            "rotation" : [
                0,
                0.7071067690849304,
                -0.7071067690849304,
                -1.461109491174284e-07
            ],
            "translation" : [
                2.249453067779541,
                -0.04069756716489792,
                0
            ]
        },
        {
            "mesh" : 1,
            "name" : "Cylinder.010",
            "rotation" : [
                0,
                0,
                -0.7071067690849304,
                0.7071068286895752
            ],
            "scale" : [
                2.168334484100342,
                3.0486581325531006,
                2.168334484100342
            ],
            "translation" : [
                -0.04437065124511719,
                0,
                0
            ]
        }
    ],
    "animations" : [
        {
            "channels" : [
                {
                    "sampler" : 0,
                    "target" : {
                        "node" : 0,
                        "path" : "translation"
                    }
                },
                {
                    "sampler" : 1,
                    "target" : {
                        "node" : 0,
                        "path" : "rotation"
                    }
                },
                {
                    "sampler" : 2,
                    "target" : {
                        "node" : 0,
                        "path" : "scale"
                    }
                }
            ],
            "name" : "TextAction",
            "samplers" : [
                {
                    "input" : 39,
                    "interpolation" : "STEP",
                    "output" : 40
                },
                {
                    "input" : 39,
                    "interpolation" : "STEP",
                    "output" : 41
                },
                {
                    "input" : 39,
                    "interpolation" : "STEP",
                    "output" : 42
                }
            ]
        }
    ],
    "materials" : [
        {
            "doubleSided" : true,
            "name" : "Material.003",
            "pbrMetallicRoughness" : {
                "baseColorFactor" : [
                    0.001142039429396391,
                    0.001142039429396391,
                    0.001142039429396391,
                    1
                ],
                "metallicFactor" : 0,
                "roughnessFactor" : 1
            }
        },
        {
            "doubleSided" : true,
            "name" : "Material",
            "pbrMetallicRoughness" : {
                "baseColorFactor" : [
                    0.5711250305175781,
                    0.03433981537818909,
                    0.02415764518082142,
                    1
                ],
                "metallicFactor" : 1,
                "roughnessFactor" : 1
            }
        },
        {
            "doubleSided" : true,
            "name" : "Material.001",
            "pbrMetallicRoughness" : {
                "baseColorFactor" : [
                    0.45641109347343445,
                    0.4969329833984375,
                    0.4910208582878113,
                    1
                ],
                "metallicFactor" : 1,
                "roughnessFactor" : 1
            }
        },
        {
            "doubleSided" : true,
            "name" : "Material.004",
            "pbrMetallicRoughness" : {
                "baseColorFactor" : [
                    0.27056774497032166,
                    0.06335873901844025,
                    0.013538681901991367,
                    1
                ],
                "metallicFactor" : 0,
                "roughnessFactor" : 1
            }
        },
        {
            "doubleSided" : true,
            "name" : "Material.005",
            "pbrMetallicRoughness" : {
                "baseColorFactor" : [
                    0.7017325758934021,
                    0.8401766419410706,
                    0.8744300603866577,
                    1
                ],
                "metallicFactor" : 0,
                "roughnessFactor" : 0.06666667014360428
            }
        },
        {
            "doubleSided" : true,
            "name" : "Material.006",
            "pbrMetallicRoughness" : {
                "baseColorFactor" : [
                    0.800000011920929,
                    0.800000011920929,
                    0.800000011920929,
                    1
                ],
                "metallicFactor" : 0,
                "roughnessFactor" : 0.5
            }
        },
        {
            "doubleSided" : true,
            "name" : "Material.007",
            "pbrMetallicRoughness" : {
                "baseColorFactor" : [
                    0.590618908405304,
                    0.7230552434921265,
                    0.7835379838943481,
                    1
                ],
                "metallicFactor" : 1,
                "roughnessFactor" : 0.375
            }
        },
        {
            "doubleSided" : true,
            "name" : "Material.002",
            "pbrMetallicRoughness" : {
                "baseColorFactor" : [
                    1,
                    0.6444798707962036,
                    0.021219022572040558,
                    1
                ],
                "metallicFactor" : 0,
                "roughnessFactor" : 0.5
            }
        },
        {
            "doubleSided" : true,
            "name" : "Inside",
            "pbrMetallicRoughness" : {
                "baseColorFactor" : [
                    0.032229188829660416,
                    0.17461730539798737,
                    0.36723700165748596,
                    1
                ],
                "metallicFactor" : 0,
                "roughnessFactor" : 1
            }
        }
    ],
    "meshes" : [
        {
            "name" : "Text",
            "primitives" : [
                {
                    "attributes" : {
                        "POSITION" : 0,
                        "NORMAL" : 1
                    },
                    "indices" : 2,
                    "material" : 0
                }
            ]
        },
        {
            "name" : "Cylinder.014",
            "primitives" : [
                {
                    "attributes" : {
                        "POSITION" : 3,
                        "NORMAL" : 4,
                        "TEXCOORD_0" : 5
                    },
                    "indices" : 6,
                    "material" : 1
                },
                {
                    "attributes" : {
                        "POSITION" : 7,
                        "NORMAL" : 8,
                        "TEXCOORD_0" : 9
                    },
                    "indices" : 10,
                    "material" : 2
                },
                {
                    "attributes" : {
                        "POSITION" : 11,
                        "NORMAL" : 12,
                        "TEXCOORD_0" : 13
                    },
                    "indices" : 14,
                    "material" : 0
                },
                {
                    "attributes" : {
                        "POSITION" : 15,
                        "NORMAL" : 16,
                        "TEXCOORD_0" : 17
                    },
                    "indices" : 18,
                    "material" : 3
                },
                {
                    "attributes" : {
                        "POSITION" : 19,
                        "NORMAL" : 20,
                        "TEXCOORD_0" : 21
                    },
                    "indices" : 22,
                    "material" : 4
                },
                {
                    "attributes" : {
                        "POSITION" : 23,
                        "NORMAL" : 24,
                        "TEXCOORD_0" : 25
                    },
                    "indices" : 26,
                    "material" : 5
                },
                {
                    "attributes" : {
                        "POSITION" : 27,
                        "NORMAL" : 28,
                        "TEXCOORD_0" : 29
                    },
                    "indices" : 30,
                    "material" : 6
                },
                {
                    "attributes" : {
                        "POSITION" : 31,
                        "NORMAL" : 32,
                        "TEXCOORD_0" : 33
                    },
                    "indices" : 34,
                    "material" : 7
                },
                {
                    "attributes" : {
                        "POSITION" : 35,
                        "NORMAL" : 36,
                        "TEXCOORD_0" : 37
                    },
                    "indices" : 38,
                    "material" : 8
                }
            ]
        }
    ],
    "accessors" : [
        {
            "bufferView" : 0,
            "componentType" : 5126,
            "count" : 5205,
            "max" : [
                4.147000312805176,
                0.15700000524520874,
                1.0089999437332153
            ],
            "min" : [
                0.017000000923871994,
                -0.15700000524520874,
                -0.6820000410079956
            ],
            "type" : "VEC3"
        },
        {
            "bufferView" : 1,
            "componentType" : 5126,
            "count" : 5205,
            "type" : "VEC3"
        },
        {
            "bufferView" : 2,
            "componentType" : 5123,
            "count" : 13284,
            "type" : "SCALAR"
        },
        {
            "bufferView" : 3,
            "componentType" : 5126,
            "count" : 5737,
            "max" : [
                1.0176410675048828,
                0.9396317005157471,
                3.3887269496917725
            ],
            "min" : [
                -1.3941560983657837,
                -1.3115315437316895,
                -0.00016190417227335274
            ],
            "type" : "VEC3"
        },
        {
            "bufferView" : 4,
            "componentType" : 5126,
            "count" : 5737,
            "type" : "VEC3"
        },
        {
            "bufferView" : 5,
            "componentType" : 5126,
            "count" : 5737,
            "type" : "VEC2"
        },
        {
            "bufferView" : 6,
            "componentType" : 5123,
            "count" : 28593,
            "type" : "SCALAR"
        },
        {
            "bufferView" : 7,
            "componentType" : 5126,
            "count" : 4521,
            "max" : [
                1.440429925918579,
                1.1315054893493652,
                1.0845739841461182
            ],
            "min" : [
                -0.9683784246444702,
                -0.9430779218673706,
                -0.00016190053429454565
            ],
            "type" : "VEC3"
        },
        {
            "bufferView" : 8,
            "componentType" : 5126,
            "count" : 4521,
            "type" : "VEC3"
        },
        {
            "bufferView" : 9,
            "componentType" : 5126,
            "count" : 4521,
            "type" : "VEC2"
        },
        {
            "bufferView" : 10,
            "componentType" : 5123,
            "count" : 20355,
            "type" : "SCALAR"
        },
        {
            "bufferView" : 11,
            "componentType" : 5126,
            "count" : 1821,
            "max" : [
                1.6251364946365356,
                0.5321481227874756,
                0.7856515049934387
            ],
            "min" : [
                -0.935096263885498,
                -1.0308700799942017,
                -0.0001618963578948751
            ],
            "type" : "VEC3"
        },
        {
            "bufferView" : 12,
            "componentType" : 5126,
            "count" : 1821,
            "type" : "VEC3"
        },
        {
            "bufferView" : 13,
            "componentType" : 5126,
            "count" : 1821,
            "type" : "VEC2"
        },
        {
            "bufferView" : 14,
            "componentType" : 5123,
            "count" : 7596,
            "type" : "SCALAR"
        },
        {
            "bufferView" : 15,
            "componentType" : 5126,
            "count" : 608,
            "max" : [
                -0.42178741097450256,
                0.22595734894275665,
                0.41405612230300903
            ],
            "min" : [
                -1.1357616186141968,
                -0.366267591714859,
                -0.00016189545567613095
            ],
            "type" : "VEC3"
        },
        {
            "bufferView" : 16,
            "componentType" : 5126,
            "count" : 608,
            "type" : "VEC3"
        },
        {
            "bufferView" : 17,
            "componentType" : 5126,
            "count" : 608,
            "type" : "VEC2"
        },
        {
            "bufferView" : 18,
            "componentType" : 5123,
            "count" : 2664,
            "type" : "SCALAR"
        },
        {
            "bufferView" : 19,
            "componentType" : 5126,
            "count" : 867,
            "max" : [
                -0.8982039093971252,
                0.5656418800354004,
                0.35957127809524536
            ],
            "min" : [
                -1.2708841562271118,
                0.4294391870498657,
                -0.00016188998415600508
            ],
            "type" : "VEC3"
        },
        {
            "bufferView" : 20,
            "componentType" : 5126,
            "count" : 867,
            "type" : "VEC3"
        },
        {
            "bufferView" : 21,
            "componentType" : 5126,
            "count" : 867,
            "type" : "VEC2"
        },
        {
            "bufferView" : 22,
            "componentType" : 5123,
            "count" : 4323,
            "type" : "SCALAR"
        },
        {
            "bufferView" : 23,
            "componentType" : 5126,
            "count" : 360,
            "max" : [
                1.537163496017456,
                0.4695778489112854,
                0.7732497453689575
            ],
            "min" : [
                0.8239511251449585,
                -0.9942997097969055,
                0.01933835819363594
            ],
            "type" : "VEC3"
        },
        {
            "bufferView" : 24,
            "componentType" : 5126,
            "count" : 360,
            "type" : "VEC3"
        },
        {
            "bufferView" : 25,
            "componentType" : 5126,
            "count" : 360,
            "type" : "VEC2"
        },
        {
            "bufferView" : 26,
            "componentType" : 5123,
            "count" : 1440,
            "type" : "SCALAR"
        },
        {
            "bufferView" : 27,
            "componentType" : 5126,
            "count" : 3020,
            "max" : [
                0.7934844493865967,
                1.505972146987915,
                1.403578281402588
            ],
            "min" : [
                -0.3301648795604706,
                -0.7582193613052368,
                -0.0001619867980480194
            ],
            "type" : "VEC3"
        },
        {
            "bufferView" : 28,
            "componentType" : 5126,
            "count" : 3020,
            "type" : "VEC3"
        },
        {
            "bufferView" : 29,
            "componentType" : 5126,
            "count" : 3020,
            "type" : "VEC2"
        },
        {
            "bufferView" : 30,
            "componentType" : 5123,
            "count" : 14292,
            "type" : "SCALAR"
        },
        {
            "bufferView" : 31,
            "componentType" : 5126,
            "count" : 8403,
            "max" : [
                0.5610858201980591,
                0.4704796075820923,
                3.423560619354248
            ],
            "min" : [
                -1.3327717781066895,
                -1.2283190488815308,
                -0.0001622158888494596
            ],
            "type" : "VEC3"
        },
        {
            "bufferView" : 32,
            "componentType" : 5126,
            "count" : 8403,
            "type" : "VEC3"
        },
        {
            "bufferView" : 33,
            "componentType" : 5126,
            "count" : 8403,
            "type" : "VEC2"
        },
        {
            "bufferView" : 34,
            "componentType" : 5123,
            "count" : 41460,
            "type" : "SCALAR"
        },
        {
            "bufferView" : 35,
            "componentType" : 5126,
            "count" : 978,
            "max" : [
                1.0677883625030518,
                1.5059226751327515,
                3.1044087439591195e-11
            ],
            "min" : [
                -1.39414381980896,
                -1.311474323272705,
                -0.0001622158888494596
            ],
            "type" : "VEC3"
        },
        {
            "bufferView" : 36,
            "componentType" : 5126,
            "count" : 978,
            "type" : "VEC3"
        },
        {
            "bufferView" : 37,
            "componentType" : 5126,
            "count" : 978,
            "type" : "VEC2"
        },
        {
            "bufferView" : 38,
            "componentType" : 5123,
            "count" : 3684,
            "type" : "SCALAR"
        },
        {
            "bufferView" : 39,
            "componentType" : 5126,
            "count" : 1,
            "max" : [
                0
            ],
            "min" : [
                0
            ],
            "type" : "SCALAR"
        },
        {
            "bufferView" : 40,
            "componentType" : 5126,
            "count" : 1,
            "type" : "VEC3"
        },
        {
            "bufferView" : 41,
            "componentType" : 5126,
            "count" : 1,
            "type" : "VEC4"
        },
        {
            "bufferView" : 42,
            "componentType" : 5126,
            "count" : 1,
            "type" : "VEC3"
        }
    ],
    "bufferViews" : [
        {
            "buffer" : 0,
            "byteLength" : 62460,
            "byteOffset" : 0
        },
        {
            "buffer" : 0,
            "byteLength" : 62460,
            "byteOffset" : 62460
        },
        {
            "buffer" : 0,
            "byteLength" : 26568,
            "byteOffset" : 124920
        },
        {
            "buffer" : 0,
            "byteLength" : 68844,
            "byteOffset" : 151488
        },
        {
            "buffer" : 0,
            "byteLength" : 68844,
            "byteOffset" : 220332
        },
        {
            "buffer" : 0,
            "byteLength" : 45896,
            "byteOffset" : 289176
        },
        {
            "buffer" : 0,
            "byteLength" : 57186,
            "byteOffset" : 335072
        },
        {
            "buffer" : 0,
            "byteLength" : 54252,
            "byteOffset" : 392260
        },
        {
            "buffer" : 0,
            "byteLength" : 54252,
            "byteOffset" : 446512
        },
        {
            "buffer" : 0,
            "byteLength" : 36168,
            "byteOffset" : 500764
        },
        {
            "buffer" : 0,
            "byteLength" : 40710,
            "byteOffset" : 536932
        },
        {
            "buffer" : 0,
            "byteLength" : 21852,
            "byteOffset" : 577644
        },
        {
            "buffer" : 0,
            "byteLength" : 21852,
            "byteOffset" : 599496
        },
        {
            "buffer" : 0,
            "byteLength" : 14568,
            "byteOffset" : 621348
        },
        {
            "buffer" : 0,
            "byteLength" : 15192,
            "byteOffset" : 635916
        },
        {
            "buffer" : 0,
            "byteLength" : 7296,
            "byteOffset" : 651108
        },
        {
            "buffer" : 0,
            "byteLength" : 7296,
            "byteOffset" : 658404
        },
        {
            "buffer" : 0,
            "byteLength" : 4864,
            "byteOffset" : 665700
        },
        {
            "buffer" : 0,
            "byteLength" : 5328,
            "byteOffset" : 670564
        },
        {
            "buffer" : 0,
            "byteLength" : 10404,
            "byteOffset" : 675892
        },
        {
            "buffer" : 0,
            "byteLength" : 10404,
            "byteOffset" : 686296
        },
        {
            "buffer" : 0,
            "byteLength" : 6936,
            "byteOffset" : 696700
        },
        {
            "buffer" : 0,
            "byteLength" : 8646,
            "byteOffset" : 703636
        },
        {
            "buffer" : 0,
            "byteLength" : 4320,
            "byteOffset" : 712284
        },
        {
            "buffer" : 0,
            "byteLength" : 4320,
            "byteOffset" : 716604
        },
        {
            "buffer" : 0,
            "byteLength" : 2880,
            "byteOffset" : 720924
        },
        {
            "buffer" : 0,
            "byteLength" : 2880,
            "byteOffset" : 723804
        },
        {
            "buffer" : 0,
            "byteLength" : 36240,
            "byteOffset" : 726684
        },
        {
            "buffer" : 0,
            "byteLength" : 36240,
            "byteOffset" : 762924
        },
        {
            "buffer" : 0,
            "byteLength" : 24160,
            "byteOffset" : 799164
        },
        {
            "buffer" : 0,
            "byteLength" : 28584,
            "byteOffset" : 823324
        },
        {
            "buffer" : 0,
            "byteLength" : 100836,
            "byteOffset" : 851908
        },
        {
            "buffer" : 0,
            "byteLength" : 100836,
            "byteOffset" : 952744
        },
        {
            "buffer" : 0,
            "byteLength" : 67224,
            "byteOffset" : 1053580
        },
        {
            "buffer" : 0,
            "byteLength" : 82920,
            "byteOffset" : 1120804
        },
        {
            "buffer" : 0,
            "byteLength" : 11736,
            "byteOffset" : 1203724
        },
        {
            "buffer" : 0,
            "byteLength" : 11736,
            "byteOffset" : 1215460
        },
        {
            "buffer" : 0,
            "byteLength" : 7824,
            "byteOffset" : 1227196
        },
        {
            "buffer" : 0,
            "byteLength" : 7368,
            "byteOffset" : 1235020
        },
        {
            "buffer" : 0,
            "byteLength" : 4,
            "byteOffset" : 1242388
        },
        {
            "buffer" : 0,
            "byteLength" : 12,
            "byteOffset" : 1242392
        },
        {
            "buffer" : 0,
            "byteLength" : 16,
            "byteOffset" : 1242404
        },
        {
            "buffer" : 0,
            "byteLength" : 12,
            "byteOffset" : 1242420
        }
    ],
    "buffers" : [
        {
            "byteLength" : 1242432,
            "uri" : "data:application/octet-stream;base64,"
        }
    ]
}
