{
    "asset" : {
        "generator" : "Khronos glTF Blender I/O v0.9.36",
        "version" : "2.0"
    },
    "scene" : 0,
    "scenes" : [
        {
            "name" : "Scene",
            "nodes" : [
                1
            ]
        }
    ],
    "nodes" : [
        {
            "mesh" : 0,
            "name" : "Cylinder.010",
            "rotation" : [
                0,
                0,
                0.7071068286895752,
                0.7071067094802856
            ],
            "scale" : [
                2.168334722518921,
                3.048658847808838,
                2.168334484100342
            ],
            "translation" : [
                -0.04437065124511719,
                0,
                0
            ]
        },
        {
            "children" : [
                0
            ],
            "name" : "Yup2Zup.001",
            "rotation" : [
                1,
                0,
                0,
                -1.3435884227419592e-07
            ]
        }
    ],
    "materials" : [
        {
            "doubleSided" : true,
            "name" : "Material",
            "pbrMetallicRoughness" : {
                "baseColorFactor" : [
                    0.5711252093315125,
                    0.03433973714709282,
                    0.02415764331817627,
                    1
                ],
                "metallicFactor" : 0,
                "roughnessFactor" : 1
            }
        },
        {
            "doubleSided" : true,
            "name" : "Material.001",
            "pbrMetallicRoughness" : {
                "baseColorFactor" : [
                    0.4564109742641449,
                    0.4969330132007599,
                    0.49102088809013367,
                    1
                ],
                "metallicFactor" : 0,
                "roughnessFactor" : 1
            }
        },
        {
            "doubleSided" : true,
            "name" : "Material.003",
            "pbrMetallicRoughness" : {
                "baseColorFactor" : [
                    0.0012141077313572168,
                    0.0012141078477725387,
                    0.0012141079641878605,
                    1
                ],
                "metallicFactor" : 0,
                "roughnessFactor" : 1
            }
        },
        {
            "doubleSided" : true,
            "name" : "Material.004",
            "pbrMetallicRoughness" : {
                "baseColorFactor" : [
                    0.2704979181289673,
                    0.06300998479127884,
                    0.013702092692255974,
                    1
                ],
                "metallicFactor" : 0,
                "roughnessFactor" : 1
            }
        },
        {
            "doubleSided" : true,
            "name" : "Material.005",
            "pbrMetallicRoughness" : {
                "baseColorFactor" : [
                    0.7011020183563232,
                    0.8387992978096008,
                    0.8713673949241638,
                    1
                ],
                "metallicFactor" : 0,
                "roughnessFactor" : 1
            }
        },
        {
            "doubleSided" : true,
            "name" : "Material.006",
            "pbrMetallicRoughness" : {
                "baseColorFactor" : [
                    0.7991031408309937,
                    0.7991029024124146,
                    0.7991030216217041,
                    1
                ],
                "metallicFactor" : 0,
                "roughnessFactor" : 1
            }
        },
        {
            "doubleSided" : true,
            "name" : "Material.007",
            "pbrMetallicRoughness" : {
                "baseColorFactor" : [
                    0.590618908405304,
                    0.723055362701416,
                    0.7835379838943481,
                    1
                ],
                "metallicFactor" : 0,
                "roughnessFactor" : 1
            }
        },
        {
            "doubleSided" : true,
            "name" : "Material.002",
            "pbrMetallicRoughness" : {
                "baseColorFactor" : [
                    1,
                    0.6444798707962036,
                    0.021219022572040558,
                    1
                ],
                "metallicFactor" : 0,
                "roughnessFactor" : 1
            }
        },
        {
            "doubleSided" : true,
            "name" : "Inside",
            "pbrMetallicRoughness" : {
                "baseColorFactor" : [
                    0.061021070927381516,
                    0.361873060464859,
                    0.7742716073989868,
                    1
                ],
                "metallicFactor" : 0,
                "roughnessFactor" : 1
            }
        }
    ],
    "meshes" : [
        {
            "name" : "Cylinder.014",
            "primitives" : [
                {
                    "attributes" : {
                        "POSITION" : 0,
                        "NORMAL" : 1,
                        "TEXCOORD_0" : 2
                    },
                    "indices" : 3,
                    "material" : 0
                },
                {
                    "attributes" : {
                        "POSITION" : 4,
                        "NORMAL" : 5,
                        "TEXCOORD_0" : 6
                    },
                    "indices" : 7,
                    "material" : 1
                },
                {
                    "attributes" : {
                        "POSITION" : 8,
                        "NORMAL" : 9,
                        "TEXCOORD_0" : 10
                    },
                    "indices" : 11,
                    "material" : 2
                },
                {
                    "attributes" : {
                        "POSITION" : 12,
                        "NORMAL" : 13,
                        "TEXCOORD_0" : 14
                    },
                    "indices" : 15,
                    "material" : 3
                },
                {
                    "attributes" : {
                        "POSITION" : 16,
                        "NORMAL" : 17,
                        "TEXCOORD_0" : 18
                    },
                    "indices" : 19,
                    "material" : 4
                },
                {
                    "attributes" : {
                        "POSITION" : 20,
                        "NORMAL" : 21,
                        "TEXCOORD_0" : 22
                    },
                    "indices" : 23,
                    "material" : 5
                },
                {
                    "attributes" : {
                        "POSITION" : 24,
                        "NORMAL" : 25,
                        "TEXCOORD_0" : 26
                    },
                    "indices" : 27,
                    "material" : 6
                },
                {
                    "attributes" : {
                        "POSITION" : 28,
                        "NORMAL" : 29,
                        "TEXCOORD_0" : 30
                    },
                    "indices" : 31,
                    "material" : 7
                },
                {
                    "attributes" : {
                        "POSITION" : 32,
                        "NORMAL" : 33,
                        "TEXCOORD_0" : 34
                    },
                    "indices" : 35,
                    "material" : 8
                }
            ]
        }
    ],
    "accessors" : [
        {
            "bufferView" : 0,
            "componentType" : 5126,
            "count" : 5701,
            "max" : [
                1.0176410675048828,
                1.3113462924957275,
                3.3887269496917725
            ],
            "min" : [
                -1.39414381980896,
                -0.9396317005157471,
                -0.00016189913731068373
            ],
            "type" : "VEC3"
        },
        {
            "bufferView" : 1,
            "componentType" : 5126,
            "count" : 5701,
            "type" : "VEC3"
        },
        {
            "bufferView" : 2,
            "componentType" : 5126,
            "count" : 5701,
            "type" : "VEC2"
        },
        {
            "bufferView" : 3,
            "componentType" : 5123,
            "count" : 26676,
            "type" : "SCALAR"
        },
        {
            "bufferView" : 4,
            "componentType" : 5126,
            "count" : 4030,
            "max" : [
                1.4402636289596558,
                0.9430779218673706,
                1.0845739841461182
            ],
            "min" : [
                -1.2708841562271118,
                -1.1315054893493652,
                -0.000161889533046633
            ],
            "type" : "VEC3"
        },
        {
            "bufferView" : 5,
            "componentType" : 5126,
            "count" : 4030,
            "type" : "VEC3"
        },
        {
            "bufferView" : 6,
            "componentType" : 5126,
            "count" : 4030,
            "type" : "VEC2"
        },
        {
            "bufferView" : 7,
            "componentType" : 5123,
            "count" : 15357,
            "type" : "SCALAR"
        },
        {
            "bufferView" : 8,
            "componentType" : 5126,
            "count" : 2991,
            "max" : [
                1.6251364946365356,
                1.0308700799942017,
                0.7856515049934387
            ],
            "min" : [
                -0.9379359483718872,
                -0.7707587480545044,
                -0.0724058747291565
            ],
            "type" : "VEC3"
        },
        {
            "bufferView" : 9,
            "componentType" : 5126,
            "count" : 2991,
            "type" : "VEC3"
        },
        {
            "bufferView" : 10,
            "componentType" : 5126,
            "count" : 2991,
            "type" : "VEC2"
        },
        {
            "bufferView" : 11,
            "componentType" : 5123,
            "count" : 7872,
            "type" : "SCALAR"
        },
        {
            "bufferView" : 12,
            "componentType" : 5126,
            "count" : 564,
            "max" : [
                -0.42178741097450256,
                0.36626067757606506,
                0.41405612230300903
            ],
            "min" : [
                -1.135756015777588,
                -0.22595734894275665,
                -0.00016188621520996094
            ],
            "type" : "VEC3"
        },
        {
            "bufferView" : 13,
            "componentType" : 5126,
            "count" : 564,
            "type" : "VEC3"
        },
        {
            "bufferView" : 14,
            "componentType" : 5126,
            "count" : 564,
            "type" : "VEC2"
        },
        {
            "bufferView" : 15,
            "componentType" : 5123,
            "count" : 2370,
            "type" : "SCALAR"
        },
        {
            "bufferView" : 16,
            "componentType" : 5126,
            "count" : 2951,
            "max" : [
                0.5603405237197876,
                0.5839356184005737,
                0.35957127809524536
            ],
            "min" : [
                -1.2708841562271118,
                -0.7707587480545044,
                -0.07240588963031769
            ],
            "type" : "VEC3"
        },
        {
            "bufferView" : 17,
            "componentType" : 5126,
            "count" : 2951,
            "type" : "VEC3"
        },
        {
            "bufferView" : 18,
            "componentType" : 5126,
            "count" : 2951,
            "type" : "VEC2"
        },
        {
            "bufferView" : 19,
            "componentType" : 5123,
            "count" : 7068,
            "type" : "SCALAR"
        },
        {
            "bufferView" : 20,
            "componentType" : 5126,
            "count" : 361,
            "max" : [
                1.537163496017456,
                0.9942997097969055,
                0.7732497453689575
            ],
            "min" : [
                -0.9473701119422913,
                -0.5036971569061279,
                0
            ],
            "type" : "VEC3"
        },
        {
            "bufferView" : 21,
            "componentType" : 5126,
            "count" : 361,
            "type" : "VEC3"
        },
        {
            "bufferView" : 22,
            "componentType" : 5126,
            "count" : 361,
            "type" : "VEC2"
        },
        {
            "bufferView" : 23,
            "componentType" : 5123,
            "count" : 1335,
            "type" : "SCALAR"
        },
        {
            "bufferView" : 24,
            "componentType" : 5126,
            "count" : 3166,
            "max" : [
                0.7934844493865967,
                0.7582193613052368,
                1.403578281402588
            ],
            "min" : [
                -0.3301648795604706,
                -1.505868673324585,
                0.00016193464398384094
            ],
            "type" : "VEC3"
        },
        {
            "bufferView" : 25,
            "componentType" : 5126,
            "count" : 3166,
            "type" : "VEC3"
        },
        {
            "bufferView" : 26,
            "componentType" : 5126,
            "count" : 3166,
            "type" : "VEC2"
        },
        {
            "bufferView" : 27,
            "componentType" : 5123,
            "count" : 11841,
            "type" : "SCALAR"
        },
        {
            "bufferView" : 28,
            "componentType" : 5126,
            "count" : 8396,
            "max" : [
                0.5610858201980591,
                1.2282657623291016,
                3.4223294258117676
            ],
            "min" : [
                -1.3327717781066895,
                -0.4704796075820923,
                2.9476423524243955e-09
            ],
            "type" : "VEC3"
        },
        {
            "bufferView" : 29,
            "componentType" : 5126,
            "count" : 8396,
            "type" : "VEC3"
        },
        {
            "bufferView" : 30,
            "componentType" : 5126,
            "count" : 8396,
            "type" : "VEC2"
        },
        {
            "bufferView" : 31,
            "componentType" : 5123,
            "count" : 33459,
            "type" : "SCALAR"
        },
        {
            "bufferView" : 32,
            "componentType" : 5126,
            "count" : 1112,
            "max" : [
                1.0667884349822998,
                1.3113462924957275,
                0.36278247833251953
            ],
            "min" : [
                -1.39414381980896,
                -1.505868673324585,
                -0.00016189913731068373
            ],
            "type" : "VEC3"
        },
        {
            "bufferView" : 33,
            "componentType" : 5126,
            "count" : 1112,
            "type" : "VEC3"
        },
        {
            "bufferView" : 34,
            "componentType" : 5126,
            "count" : 1112,
            "type" : "VEC2"
        },
        {
            "bufferView" : 35,
            "componentType" : 5123,
            "count" : 2577,
            "type" : "SCALAR"
        }
    ],
    "bufferViews" : [
        {
            "buffer" : 0,
            "byteLength" : 68412,
            "byteOffset" : 0
        },
        {
            "buffer" : 0,
            "byteLength" : 68412,
            "byteOffset" : 68412
        },
        {
            "buffer" : 0,
            "byteLength" : 45608,
            "byteOffset" : 136824
        },
        {
            "buffer" : 0,
            "byteLength" : 53352,
            "byteOffset" : 182432
        },
        {
            "buffer" : 0,
            "byteLength" : 48360,
            "byteOffset" : 235784
        },
        {
            "buffer" : 0,
            "byteLength" : 48360,
            "byteOffset" : 284144
        },
        {
            "buffer" : 0,
            "byteLength" : 32240,
            "byteOffset" : 332504
        },
        {
            "buffer" : 0,
            "byteLength" : 30714,
            "byteOffset" : 364744
        },
        {
            "buffer" : 0,
            "byteLength" : 35892,
            "byteOffset" : 395460
        },
        {
            "buffer" : 0,
            "byteLength" : 35892,
            "byteOffset" : 431352
        },
        {
            "buffer" : 0,
            "byteLength" : 23928,
            "byteOffset" : 467244
        },
        {
            "buffer" : 0,
            "byteLength" : 15744,
            "byteOffset" : 491172
        },
        {
            "buffer" : 0,
            "byteLength" : 6768,
            "byteOffset" : 506916
        },
        {
            "buffer" : 0,
            "byteLength" : 6768,
            "byteOffset" : 513684
        },
        {
            "buffer" : 0,
            "byteLength" : 4512,
            "byteOffset" : 520452
        },
        {
            "buffer" : 0,
            "byteLength" : 4740,
            "byteOffset" : 524964
        },
        {
            "buffer" : 0,
            "byteLength" : 35412,
            "byteOffset" : 529704
        },
        {
            "buffer" : 0,
            "byteLength" : 35412,
            "byteOffset" : 565116
        },
        {
            "buffer" : 0,
            "byteLength" : 23608,
            "byteOffset" : 600528
        },
        {
            "buffer" : 0,
            "byteLength" : 14136,
            "byteOffset" : 624136
        },
        {
            "buffer" : 0,
            "byteLength" : 4332,
            "byteOffset" : 638272
        },
        {
            "buffer" : 0,
            "byteLength" : 4332,
            "byteOffset" : 642604
        },
        {
            "buffer" : 0,
            "byteLength" : 2888,
            "byteOffset" : 646936
        },
        {
            "buffer" : 0,
            "byteLength" : 2670,
            "byteOffset" : 649824
        },
        {
            "buffer" : 0,
            "byteLength" : 37992,
            "byteOffset" : 652496
        },
        {
            "buffer" : 0,
            "byteLength" : 37992,
            "byteOffset" : 690488
        },
        {
            "buffer" : 0,
            "byteLength" : 25328,
            "byteOffset" : 728480
        },
        {
            "buffer" : 0,
            "byteLength" : 23682,
            "byteOffset" : 753808
        },
        {
            "buffer" : 0,
            "byteLength" : 100752,
            "byteOffset" : 777492
        },
        {
            "buffer" : 0,
            "byteLength" : 100752,
            "byteOffset" : 878244
        },
        {
            "buffer" : 0,
            "byteLength" : 67168,
            "byteOffset" : 978996
        },
        {
            "buffer" : 0,
            "byteLength" : 66918,
            "byteOffset" : 1046164
        },
        {
            "buffer" : 0,
            "byteLength" : 13344,
            "byteOffset" : 1113084
        },
        {
            "buffer" : 0,
            "byteLength" : 13344,
            "byteOffset" : 1126428
        },
        {
            "buffer" : 0,
            "byteLength" : 8896,
            "byteOffset" : 1139772
        },
        {
            "buffer" : 0,
            "byteLength" : 5154,
            "byteOffset" : 1148668
        }
    ],
    "buffers" : [
        {
            "byteLength" : 1153824,
            "uri" : "data:application/octet-stream;base64,"
        }
    ]
}
