{
    "asset" : {
        "generator" : "Khronos glTF Blender I/O v0.9.36",
        "version" : "2.0"
    },
    "scene" : 0,
    "scenes" : [
        {
            "name" : "Scene",
            "nodes" : [
                1
            ]
        }
    ],
    "nodes" : [
        {
            "mesh" : 0,
            "name" : "Cylinder.010",
            "rotation" : [
                0,
                -0.7071068286895752,
                0,
                0.7071068286895752
            ],
            "scale" : [
                2.168334484100342,
                2.168334484100342,
                3.0486583709716797
            ],
            "translation" : [
                -0.04437065124511719,
                0,
                0
            ]
        },
        {
            "children" : [
                0
            ],
            "name" : "Yup2Zup",
            "rotation" : [
                0.7071067690849304,
                0,
                0,
                0.7071067690849304
            ]
        }
    ],
    "materials" : [
        {
            "doubleSided" : true,
            "name" : "Material",
            "pbrMetallicRoughness" : {
                "baseColorFactor" : [
                    0.5711252093315125,
                    0.03433973714709282,
                    0.02415764331817627,
                    1
                ],
                "metallicFactor" : 0,
                "roughnessFactor" : 1
            }
        },
        {
            "doubleSided" : true,
            "name" : "Material.001",
            "pbrMetallicRoughness" : {
                "baseColorFactor" : [
                    0.4564109742641449,
                    0.4969330132007599,
                    0.49102088809013367,
                    1
                ],
                "metallicFactor" : 0,
                "roughnessFactor" : 1
            }
        },
        {
            "doubleSided" : true,
            "name" : "Material.003",
            "pbrMetallicRoughness" : {
                "baseColorFactor" : [
                    0.0012141077313572168,
                    0.0012141078477725387,
                    0.0012141079641878605,
                    1
                ],
                "metallicFactor" : 0,
                "roughnessFactor" : 1
            }
        },
        {
            "doubleSided" : true,
            "name" : "Material.004",
            "pbrMetallicRoughness" : {
                "baseColorFactor" : [
                    0.2704979181289673,
                    0.06300998479127884,
                    0.013702092692255974,
                    1
                ],
                "metallicFactor" : 0,
                "roughnessFactor" : 1
            }
        },
        {
            "doubleSided" : true,
            "name" : "Material.005",
            "pbrMetallicRoughness" : {
                "baseColorFactor" : [
                    0.7011020183563232,
                    0.8387992978096008,
                    0.8713673949241638,
                    1
                ],
                "metallicFactor" : 0,
                "roughnessFactor" : 1
            }
        },
        {
            "doubleSided" : true,
            "name" : "Material.006",
            "pbrMetallicRoughness" : {
                "baseColorFactor" : [
                    0.7991031408309937,
                    0.7991029024124146,
                    0.7991030216217041,
                    1
                ],
                "metallicFactor" : 0,
                "roughnessFactor" : 1
            }
        },
        {
            "doubleSided" : true,
            "name" : "Material.007",
            "pbrMetallicRoughness" : {
                "baseColorFactor" : [
                    0.590618908405304,
                    0.723055362701416,
                    0.7835379838943481,
                    1
                ],
                "metallicFactor" : 0,
                "roughnessFactor" : 1
            }
        },
        {
            "doubleSided" : true,
            "name" : "Material.002",
            "pbrMetallicRoughness" : {
                "baseColorFactor" : [
                    1,
                    0.6444798707962036,
                    0.021219022572040558,
                    1
                ],
                "metallicFactor" : 0,
                "roughnessFactor" : 1
            }
        },
        {
            "doubleSided" : true,
            "name" : "Inside",
            "pbrMetallicRoughness" : {
                "baseColorFactor" : [
                    0.061021070927381516,
                    0.361873060464859,
                    0.7742716073989868,
                    1
                ],
                "metallicFactor" : 0,
                "roughnessFactor" : 1
            }
        }
    ],
    "meshes" : [
        {
            "name" : "Cylinder.014",
            "primitives" : [
                {
                    "attributes" : {
                        "POSITION" : 0,
                        "NORMAL" : 1,
                        "TEXCOORD_0" : 2
                    },
                    "indices" : 3,
                    "material" : 0
                },
                {
                    "attributes" : {
                        "POSITION" : 4,
                        "NORMAL" : 5,
                        "TEXCOORD_0" : 6
                    },
                    "indices" : 7,
                    "material" : 1
                },
                {
                    "attributes" : {
                        "POSITION" : 8,
                        "NORMAL" : 9,
                        "TEXCOORD_0" : 10
                    },
                    "indices" : 11,
                    "material" : 2
                },
                {
                    "attributes" : {
                        "POSITION" : 12,
                        "NORMAL" : 13,
                        "TEXCOORD_0" : 14
                    },
                    "indices" : 15,
                    "material" : 3
                },
                {
                    "attributes" : {
                        "POSITION" : 16,
                        "NORMAL" : 17,
                        "TEXCOORD_0" : 18
                    },
                    "indices" : 19,
                    "material" : 4
                },
                {
                    "attributes" : {
                        "POSITION" : 20,
                        "NORMAL" : 21,
                        "TEXCOORD_0" : 22
                    },
                    "indices" : 23,
                    "material" : 5
                },
                {
                    "attributes" : {
                        "POSITION" : 24,
                        "NORMAL" : 25,
                        "TEXCOORD_0" : 26
                    },
                    "indices" : 27,
                    "material" : 6
                },
                {
                    "attributes" : {
                        "POSITION" : 28,
                        "NORMAL" : 29,
                        "TEXCOORD_0" : 30
                    },
                    "indices" : 31,
                    "material" : 7
                },
                {
                    "attributes" : {
                        "POSITION" : 32,
                        "NORMAL" : 33,
                        "TEXCOORD_0" : 34
                    },
                    "indices" : 35,
                    "material" : 8
                }
            ]
        }
    ],
    "accessors" : [
        {
            "bufferView" : 0,
            "componentType" : 5126,
            "count" : 6392,
            "max" : [
                1.0176410675048828,
                0.019353022798895836,
                1.3115315437316895
            ],
            "min" : [
                -1.3941560983657837,
                -3.3887269496917725,
                -0.9396317005157471
            ],
            "type" : "VEC3"
        },
        {
            "bufferView" : 1,
            "componentType" : 5126,
            "count" : 6392,
            "type" : "VEC3"
        },
        {
            "bufferView" : 2,
            "componentType" : 5126,
            "count" : 6392,
            "type" : "VEC2"
        },
        {
            "bufferView" : 3,
            "componentType" : 5123,
            "count" : 29811,
            "type" : "SCALAR"
        },
        {
            "bufferView" : 4,
            "componentType" : 5126,
            "count" : 4951,
            "max" : [
                1.440429925918579,
                0.00016190053429454565,
                0.9430779218673706
            ],
            "min" : [
                -0.9683784246444702,
                -1.0845739841461182,
                -1.1315054893493652
            ],
            "type" : "VEC3"
        },
        {
            "bufferView" : 5,
            "componentType" : 5126,
            "count" : 4951,
            "type" : "VEC3"
        },
        {
            "bufferView" : 6,
            "componentType" : 5126,
            "count" : 4951,
            "type" : "VEC2"
        },
        {
            "bufferView" : 7,
            "componentType" : 5123,
            "count" : 21366,
            "type" : "SCALAR"
        },
        {
            "bufferView" : 8,
            "componentType" : 5126,
            "count" : 10631,
            "max" : [
                1.6251364946365356,
                0.07240588963031769,
                1.0308700799942017
            ],
            "min" : [
                -0.935096263885498,
                -0.7856515049934387,
                -0.7707587480545044
            ],
            "type" : "VEC3"
        },
        {
            "bufferView" : 9,
            "componentType" : 5126,
            "count" : 10631,
            "type" : "VEC3"
        },
        {
            "bufferView" : 10,
            "componentType" : 5126,
            "count" : 10631,
            "type" : "VEC2"
        },
        {
            "bufferView" : 11,
            "componentType" : 5123,
            "count" : 21216,
            "type" : "SCALAR"
        },
        {
            "bufferView" : 12,
            "componentType" : 5126,
            "count" : 753,
            "max" : [
                -0.42178741097450256,
                0.00016189545567613095,
                0.366267591714859
            ],
            "min" : [
                -1.1357616186141968,
                -0.41405612230300903,
                -0.22595734894275665
            ],
            "type" : "VEC3"
        },
        {
            "bufferView" : 13,
            "componentType" : 5126,
            "count" : 753,
            "type" : "VEC3"
        },
        {
            "bufferView" : 14,
            "componentType" : 5126,
            "count" : 753,
            "type" : "VEC2"
        },
        {
            "bufferView" : 15,
            "componentType" : 5123,
            "count" : 2952,
            "type" : "SCALAR"
        },
        {
            "bufferView" : 16,
            "componentType" : 5126,
            "count" : 1107,
            "max" : [
                -0.8982039093971252,
                0.00016188998415600508,
                -0.4294391870498657
            ],
            "min" : [
                -1.2708841562271118,
                -0.35957127809524536,
                -0.5656418800354004
            ],
            "type" : "VEC3"
        },
        {
            "bufferView" : 17,
            "componentType" : 5126,
            "count" : 1107,
            "type" : "VEC3"
        },
        {
            "bufferView" : 18,
            "componentType" : 5126,
            "count" : 1107,
            "type" : "VEC2"
        },
        {
            "bufferView" : 19,
            "componentType" : 5123,
            "count" : 4710,
            "type" : "SCALAR"
        },
        {
            "bufferView" : 20,
            "componentType" : 5126,
            "count" : 360,
            "max" : [
                1.537163496017456,
                -0.01933835819363594,
                0.9942997097969055
            ],
            "min" : [
                0.8239511251449585,
                -0.7732497453689575,
                -0.4695778489112854
            ],
            "type" : "VEC3"
        },
        {
            "bufferView" : 21,
            "componentType" : 5126,
            "count" : 360,
            "type" : "VEC3"
        },
        {
            "bufferView" : 22,
            "componentType" : 5126,
            "count" : 360,
            "type" : "VEC2"
        },
        {
            "bufferView" : 23,
            "componentType" : 5123,
            "count" : 1440,
            "type" : "SCALAR"
        },
        {
            "bufferView" : 24,
            "componentType" : 5126,
            "count" : 3369,
            "max" : [
                0.7934844493865967,
                0.0025894809514284134,
                0.7582193613052368
            ],
            "min" : [
                -0.3301648795604706,
                -1.403578281402588,
                -1.505972146987915
            ],
            "type" : "VEC3"
        },
        {
            "bufferView" : 25,
            "componentType" : 5126,
            "count" : 3369,
            "type" : "VEC3"
        },
        {
            "bufferView" : 26,
            "componentType" : 5126,
            "count" : 3369,
            "type" : "VEC2"
        },
        {
            "bufferView" : 27,
            "componentType" : 5123,
            "count" : 14361,
            "type" : "SCALAR"
        },
        {
            "bufferView" : 28,
            "componentType" : 5126,
            "count" : 8671,
            "max" : [
                0.5610858201980591,
                0.016831211745738983,
                1.2283190488815308
            ],
            "min" : [
                -1.3327717781066895,
                -3.423560619354248,
                -0.4704796075820923
            ],
            "type" : "VEC3"
        },
        {
            "bufferView" : 29,
            "componentType" : 5126,
            "count" : 8671,
            "type" : "VEC3"
        },
        {
            "bufferView" : 30,
            "componentType" : 5126,
            "count" : 8671,
            "type" : "VEC2"
        },
        {
            "bufferView" : 31,
            "componentType" : 5123,
            "count" : 41748,
            "type" : "SCALAR"
        },
        {
            "bufferView" : 32,
            "componentType" : 5126,
            "count" : 5240,
            "max" : [
                1.0677883625030518,
                0.0001622158888494596,
                1.311474323272705
            ],
            "min" : [
                -1.39414381980896,
                -0.0001622158888494596,
                -1.5059226751327515
            ],
            "type" : "VEC3"
        },
        {
            "bufferView" : 33,
            "componentType" : 5126,
            "count" : 5240,
            "type" : "VEC3"
        },
        {
            "bufferView" : 34,
            "componentType" : 5126,
            "count" : 5240,
            "type" : "VEC2"
        },
        {
            "bufferView" : 35,
            "componentType" : 5123,
            "count" : 7368,
            "type" : "SCALAR"
        }
    ],
    "bufferViews" : [
        {
            "buffer" : 0,
            "byteLength" : 76704,
            "byteOffset" : 0
        },
        {
            "buffer" : 0,
            "byteLength" : 76704,
            "byteOffset" : 76704
        },
        {
            "buffer" : 0,
            "byteLength" : 51136,
            "byteOffset" : 153408
        },
        {
            "buffer" : 0,
            "byteLength" : 59622,
            "byteOffset" : 204544
        },
        {
            "buffer" : 0,
            "byteLength" : 59412,
            "byteOffset" : 264168
        },
        {
            "buffer" : 0,
            "byteLength" : 59412,
            "byteOffset" : 323580
        },
        {
            "buffer" : 0,
            "byteLength" : 39608,
            "byteOffset" : 382992
        },
        {
            "buffer" : 0,
            "byteLength" : 42732,
            "byteOffset" : 422600
        },
        {
            "buffer" : 0,
            "byteLength" : 127572,
            "byteOffset" : 465332
        },
        {
            "buffer" : 0,
            "byteLength" : 127572,
            "byteOffset" : 592904
        },
        {
            "buffer" : 0,
            "byteLength" : 85048,
            "byteOffset" : 720476
        },
        {
            "buffer" : 0,
            "byteLength" : 42432,
            "byteOffset" : 805524
        },
        {
            "buffer" : 0,
            "byteLength" : 9036,
            "byteOffset" : 847956
        },
        {
            "buffer" : 0,
            "byteLength" : 9036,
            "byteOffset" : 856992
        },
        {
            "buffer" : 0,
            "byteLength" : 6024,
            "byteOffset" : 866028
        },
        {
            "buffer" : 0,
            "byteLength" : 5904,
            "byteOffset" : 872052
        },
        {
            "buffer" : 0,
            "byteLength" : 13284,
            "byteOffset" : 877956
        },
        {
            "buffer" : 0,
            "byteLength" : 13284,
            "byteOffset" : 891240
        },
        {
            "buffer" : 0,
            "byteLength" : 8856,
            "byteOffset" : 904524
        },
        {
            "buffer" : 0,
            "byteLength" : 9420,
            "byteOffset" : 913380
        },
        {
            "buffer" : 0,
            "byteLength" : 4320,
            "byteOffset" : 922800
        },
        {
            "buffer" : 0,
            "byteLength" : 4320,
            "byteOffset" : 927120
        },
        {
            "buffer" : 0,
            "byteLength" : 2880,
            "byteOffset" : 931440
        },
        {
            "buffer" : 0,
            "byteLength" : 2880,
            "byteOffset" : 934320
        },
        {
            "buffer" : 0,
            "byteLength" : 40428,
            "byteOffset" : 937200
        },
        {
            "buffer" : 0,
            "byteLength" : 40428,
            "byteOffset" : 977628
        },
        {
            "buffer" : 0,
            "byteLength" : 26952,
            "byteOffset" : 1018056
        },
        {
            "buffer" : 0,
            "byteLength" : 28722,
            "byteOffset" : 1045008
        },
        {
            "buffer" : 0,
            "byteLength" : 104052,
            "byteOffset" : 1073732
        },
        {
            "buffer" : 0,
            "byteLength" : 104052,
            "byteOffset" : 1177784
        },
        {
            "buffer" : 0,
            "byteLength" : 69368,
            "byteOffset" : 1281836
        },
        {
            "buffer" : 0,
            "byteLength" : 83496,
            "byteOffset" : 1351204
        },
        {
            "buffer" : 0,
            "byteLength" : 62880,
            "byteOffset" : 1434700
        },
        {
            "buffer" : 0,
            "byteLength" : 62880,
            "byteOffset" : 1497580
        },
        {
            "buffer" : 0,
            "byteLength" : 41920,
            "byteOffset" : 1560460
        },
        {
            "buffer" : 0,
            "byteLength" : 14736,
            "byteOffset" : 1602380
        }
    ],
    "buffers" : [
        {
            "byteLength" : 1617116,
            "uri" : "data:application/octet-stream;base64,"
        }
    ]
}
