{
    "asset" : {
        "generator" : "Khronos glTF Blender I/O v0.9.36",
        "version" : "2.0"
    },
    "scene" : 0,
    "scenes" : [
        {
            "name" : "Scene",
            "nodes" : [
                0,
                1
            ]
        }
    ],
    "nodes" : [
        {
            "mesh" : 0,
            "name" : "Cylinder",
            "scale" : [
                1,
                0.1800626516342163,
                1
            ],
            "translation" : [
                0,
                0.18501871824264526,
                0
            ]
        },
        {
            "mesh" : 1,
            "name" : "Text",
            "scale" : [
                1.7215009927749634,
                1.7215009927749634,
                1.7215009927749634
            ],
            "translation" : [
                0.009158039465546608,
                0.2535972595214844,
                0.07326430827379227
            ]
        }
    ],
    "materials" : [
        {
            "doubleSided" : true,
            "name" : "MainWhite",
            "pbrMetallicRoughness" : {
                "baseColorFactor" : [
                    0.8140428066253662,
                    0.8140428066253662,
                    0.8140428066253662,
                    1
                ],
                "metallicFactor" : 0,
                "roughnessFactor" : 0.4000000059604645
            }
        },
        {
            "doubleSided" : true,
            "name" : "MainBlack",
            "pbrMetallicRoughness" : {
                "baseColorFactor" : [
                    0.013410625979304314,
                    0.013410625979304314,
                    0.013410625979304314,
                    1
                ],
                "metallicFactor" : 0,
                "roughnessFactor" : 0.5
            }
        }
    ],
    "meshes" : [
        {
            "name" : "Cylinder",
            "primitives" : [
                {
                    "attributes" : {
                        "POSITION" : 0,
                        "NORMAL" : 1,
                        "TEXCOORD_0" : 2
                    },
                    "indices" : 3,
                    "material" : 0
                }
            ]
        },
        {
            "name" : "Text",
            "primitives" : [
                {
                    "attributes" : {
                        "POSITION" : 4,
                        "NORMAL" : 5
                    },
                    "indices" : 6,
                    "material" : 1
                }
            ]
        }
    ],
    "accessors" : [
        {
            "bufferView" : 0,
            "componentType" : 5126,
            "count" : 229,
            "max" : [
                1,
                1.0000001192092896,
                1
            ],
            "min" : [
                -1,
                -1,
                -1
            ],
            "type" : "VEC3"
        },
        {
            "bufferView" : 1,
            "componentType" : 5126,
            "count" : 229,
            "type" : "VEC3"
        },
        {
            "bufferView" : 2,
            "componentType" : 5126,
            "count" : 229,
            "type" : "VEC2"
        },
        {
            "bufferView" : 3,
            "componentType" : 5123,
            "count" : 954,
            "type" : "SCALAR"
        },
        {
            "bufferView" : 4,
            "componentType" : 5126,
            "count" : 164,
            "max" : [
                0.0632251650094986,
                0.10999999940395355,
                0.2843150198459625
            ],
            "min" : [
                -0.07530289143323898,
                -0.10999999195337296,
                -0.40000244975090027
            ],
            "type" : "VEC3"
        },
        {
            "bufferView" : 5,
            "componentType" : 5126,
            "count" : 164,
            "type" : "VEC3"
        },
        {
            "bufferView" : 6,
            "componentType" : 5123,
            "count" : 456,
            "type" : "SCALAR"
        }
    ],
    "bufferViews" : [
        {
            "buffer" : 0,
            "byteLength" : 2748,
            "byteOffset" : 0
        },
        {
            "buffer" : 0,
            "byteLength" : 2748,
            "byteOffset" : 2748
        },
        {
            "buffer" : 0,
            "byteLength" : 1832,
            "byteOffset" : 5496
        },
        {
            "buffer" : 0,
            "byteLength" : 1908,
            "byteOffset" : 7328
        },
        {
            "buffer" : 0,
            "byteLength" : 1968,
            "byteOffset" : 9236
        },
        {
            "buffer" : 0,
            "byteLength" : 1968,
            "byteOffset" : 11204
        },
        {
            "buffer" : 0,
            "byteLength" : 912,
            "byteOffset" : 13172
        }
    ],
    "buffers" : [
        {
            "byteLength" : 14084,
            "uri" : "data:application/octet-stream;base64,"
        }
    ]
}
