{
    "asset" : {
        "generator" : "Khronos glTF Blender I/O v0.9.36",
        "version" : "2.0"
    },
    "scene" : 0,
    "scenes" : [
        {
            "name" : "Scene",
            "nodes" : [
                0,
                1
            ]
        }
    ],
    "nodes" : [
        {
            "mesh" : 0,
            "name" : "Cylinder",
            "scale" : [
                1,
                0.1800626516342163,
                1
            ],
            "translation" : [
                0,
                0.18501871824264526,
                0
            ]
        },
        {
            "mesh" : 1,
            "name" : "Text",
            "scale" : [
                1.7215009927749634,
                1.7215009927749634,
                1.7215009927749634
            ],
            "translation" : [
                0.009158039465546608,
                0.2535972595214844,
                0.07326430827379227
            ]
        }
    ],
    "materials" : [
        {
            "doubleSided" : true,
            "name" : "MainWhite",
            "pbrMetallicRoughness" : {
                "baseColorFactor" : [
                    0.8140428066253662,
                    0.8140428066253662,
                    0.8140428066253662,
                    1
                ],
                "metallicFactor" : 0,
                "roughnessFactor" : 0.4000000059604645
            }
        },
        {
            "doubleSided" : true,
            "name" : "SecondaryWhite",
            "pbrMetallicRoughness" : {
                "baseColorFactor" : [
                    0.12370999902486801,
                    0.12370999902486801,
                    0.12370999902486801,
                    1
                ],
                "metallicFactor" : 0,
                "roughnessFactor" : 0.5
            }
        },
        {
            "doubleSided" : true,
            "name" : "MainBlack",
            "pbrMetallicRoughness" : {
                "baseColorFactor" : [
                    0.013410625979304314,
                    0.013410625979304314,
                    0.013410625979304314,
                    1
                ],
                "metallicFactor" : 0,
                "roughnessFactor" : 0.5
            }
        }
    ],
    "meshes" : [
        {
            "name" : "Cylinder",
            "primitives" : [
                {
                    "attributes" : {
                        "POSITION" : 0,
                        "NORMAL" : 1,
                        "TEXCOORD_0" : 2
                    },
                    "indices" : 3,
                    "material" : 0
                },
                {
                    "attributes" : {
                        "POSITION" : 4,
                        "NORMAL" : 5,
                        "TEXCOORD_0" : 6
                    },
                    "indices" : 7,
                    "material" : 1
                }
            ]
        },
        {
            "name" : "Text",
            "primitives" : [
                {
                    "attributes" : {
                        "POSITION" : 8,
                        "NORMAL" : 9
                    },
                    "indices" : 10,
                    "material" : 2
                }
            ]
        }
    ],
    "accessors" : [
        {
            "bufferView" : 0,
            "componentType" : 5126,
            "count" : 131,
            "max" : [
                1,
                1,
                1
            ],
            "min" : [
                -1,
                -1,
                -1
            ],
            "type" : "VEC3"
        },
        {
            "bufferView" : 1,
            "componentType" : 5126,
            "count" : 131,
            "type" : "VEC3"
        },
        {
            "bufferView" : 2,
            "componentType" : 5126,
            "count" : 131,
            "type" : "VEC2"
        },
        {
            "bufferView" : 3,
            "componentType" : 5123,
            "count" : 468,
            "type" : "SCALAR"
        },
        {
            "bufferView" : 4,
            "componentType" : 5126,
            "count" : 135,
            "max" : [
                0.904964804649353,
                1,
                0.9049646854400635
            ],
            "min" : [
                -0.923879086971283,
                -1,
                -0.9049648642539978
            ],
            "type" : "VEC3"
        },
        {
            "bufferView" : 5,
            "componentType" : 5126,
            "count" : 135,
            "type" : "VEC3"
        },
        {
            "bufferView" : 6,
            "componentType" : 5126,
            "count" : 135,
            "type" : "VEC2"
        },
        {
            "bufferView" : 7,
            "componentType" : 5123,
            "count" : 486,
            "type" : "SCALAR"
        },
        {
            "bufferView" : 8,
            "componentType" : 5126,
            "count" : 168,
            "max" : [
                0.109197236597538,
                0.10941658914089203,
                0.3376322388648987
            ],
            "min" : [
                -0.12126452475786209,
                -0.1237393319606781,
                -0.4327164888381958
            ],
            "type" : "VEC3"
        },
        {
            "bufferView" : 9,
            "componentType" : 5126,
            "count" : 168,
            "type" : "VEC3"
        },
        {
            "bufferView" : 10,
            "componentType" : 5123,
            "count" : 456,
            "type" : "SCALAR"
        }
    ],
    "bufferViews" : [
        {
            "buffer" : 0,
            "byteLength" : 1572,
            "byteOffset" : 0
        },
        {
            "buffer" : 0,
            "byteLength" : 1572,
            "byteOffset" : 1572
        },
        {
            "buffer" : 0,
            "byteLength" : 1048,
            "byteOffset" : 3144
        },
        {
            "buffer" : 0,
            "byteLength" : 936,
            "byteOffset" : 4192
        },
        {
            "buffer" : 0,
            "byteLength" : 1620,
            "byteOffset" : 5128
        },
        {
            "buffer" : 0,
            "byteLength" : 1620,
            "byteOffset" : 6748
        },
        {
            "buffer" : 0,
            "byteLength" : 1080,
            "byteOffset" : 8368
        },
        {
            "buffer" : 0,
            "byteLength" : 972,
            "byteOffset" : 9448
        },
        {
            "buffer" : 0,
            "byteLength" : 2016,
            "byteOffset" : 10420
        },
        {
            "buffer" : 0,
            "byteLength" : 2016,
            "byteOffset" : 12436
        },
        {
            "buffer" : 0,
            "byteLength" : 912,
            "byteOffset" : 14452
        }
    ],
    "buffers" : [
        {
            "byteLength" : 15364,
            "uri" : "data:application/octet-stream;base64,"
        }
    ]
}
