{
    "asset" : {
        "generator" : "Khronos glTF Blender I/O v0.9.36",
        "version" : "2.0"
    },
    "scene" : 0,
    "scenes" : [
        {
            "name" : "Scene",
            "nodes" : [
                0,
                1
            ]
        }
    ],
    "nodes" : [
        {
            "mesh" : 0,
            "name" : "Cylinder",
            "scale" : [
                1,
                0.1800626516342163,
                1
            ],
            "translation" : [
                0,
                0.18501871824264526,
                0
            ]
        },
        {
            "mesh" : 1,
            "name" : "Text",
            "scale" : [
                1.7215009927749634,
                1.7215009927749634,
                1.7215009927749634
            ],
            "translation" : [
                0.009158039465546608,
                0.2535972595214844,
                0.07326430827379227
            ]
        }
    ],
    "materials" : [
        {
            "doubleSided" : true,
            "name" : "MainWhite",
            "pbrMetallicRoughness" : {
                "baseColorFactor" : [
                    0.8140428066253662,
                    0.8140428066253662,
                    0.8140428066253662,
                    1
                ],
                "metallicFactor" : 0,
                "roughnessFactor" : 1
            }
        },
        {
            "doubleSided" : true,
            "name" : "MainBlack",
            "pbrMetallicRoughness" : {
                "baseColorFactor" : [
                    0.5711252093315125,
                    0.015208428725600243,
                    0.12213881313800812,
                    1
                ],
                "metallicFactor" : 0,
                "roughnessFactor" : 1
            }
        }
    ],
    "meshes" : [
        {
            "name" : "Cylinder",
            "primitives" : [
                {
                    "attributes" : {
                        "POSITION" : 0,
                        "NORMAL" : 1,
                        "TEXCOORD_0" : 2
                    },
                    "indices" : 3,
                    "material" : 0
                }
            ]
        },
        {
            "name" : "Text",
            "primitives" : [
                {
                    "attributes" : {
                        "POSITION" : 4,
                        "NORMAL" : 5
                    },
                    "indices" : 6,
                    "material" : 1
                }
            ]
        }
    ],
    "accessors" : [
        {
            "bufferView" : 0,
            "componentType" : 5126,
            "count" : 261,
            "max" : [
                1,
                -0.11651280522346497,
                1
            ],
            "min" : [
                -1,
                -1,
                -1
            ],
            "type" : "VEC3"
        },
        {
            "bufferView" : 1,
            "componentType" : 5126,
            "count" : 261,
            "type" : "VEC3"
        },
        {
            "bufferView" : 2,
            "componentType" : 5126,
            "count" : 261,
            "type" : "VEC2"
        },
        {
            "bufferView" : 3,
            "componentType" : 5123,
            "count" : 1044,
            "type" : "SCALAR"
        },
        {
            "bufferView" : 4,
            "componentType" : 5126,
            "count" : 168,
            "max" : [
                0.109197236597538,
                0.10941658914089203,
                0.3376322388648987
            ],
            "min" : [
                -0.12126452475786209,
                -0.1237393319606781,
                -0.4327164888381958
            ],
            "type" : "VEC3"
        },
        {
            "bufferView" : 5,
            "componentType" : 5126,
            "count" : 168,
            "type" : "VEC3"
        },
        {
            "bufferView" : 6,
            "componentType" : 5123,
            "count" : 456,
            "type" : "SCALAR"
        }
    ],
    "bufferViews" : [
        {
            "buffer" : 0,
            "byteLength" : 3132,
            "byteOffset" : 0
        },
        {
            "buffer" : 0,
            "byteLength" : 3132,
            "byteOffset" : 3132
        },
        {
            "buffer" : 0,
            "byteLength" : 2088,
            "byteOffset" : 6264
        },
        {
            "buffer" : 0,
            "byteLength" : 2088,
            "byteOffset" : 8352
        },
        {
            "buffer" : 0,
            "byteLength" : 2016,
            "byteOffset" : 10440
        },
        {
            "buffer" : 0,
            "byteLength" : 2016,
            "byteOffset" : 12456
        },
        {
            "buffer" : 0,
            "byteLength" : 912,
            "byteOffset" : 14472
        }
    ],
    "buffers" : [
        {
            "byteLength" : 15384,
            "uri" : "data:application/octet-stream;base64,"
        }
    ]
}
