{
    "asset" : {
        "generator" : "Khronos glTF Blender I/O v0.9.36",
        "version" : "2.0"
    },
    "scene" : 0,
    "scenes" : [
        {
            "name" : "Scene",
            "nodes" : [
                0,
                1
            ]
        }
    ],
    "nodes" : [
        {
            "mesh" : 0,
            "name" : "Cylinder",
            "scale" : [
                1,
                0.1800626516342163,
                1
            ],
            "translation" : [
                0,
                0.18501871824264526,
                0
            ]
        },
        {
            "mesh" : 1,
            "name" : "Cube",
            "scale" : [
                0.5806066989898682,
                0.22552144527435303,
                0.5806066989898682
            ],
            "translation" : [
                0.22541403770446777,
                0.26220613718032837,
                0
            ]
        }
    ],
    "materials" : [
        {
            "doubleSided" : true,
            "name" : "MainWhite",
            "pbrMetallicRoughness" : {
                "baseColorFactor" : [
                    0.8140428066253662,
                    0.8140428066253662,
                    0.8140428066253662,
                    1
                ],
                "metallicFactor" : 0,
                "roughnessFactor" : 1
            }
        },
        {
            "doubleSided" : true,
            "name" : "MainBlack",
            "pbrMetallicRoughness" : {
                "baseColorFactor" : [
                    0.5711252093315125,
                    0.015208428725600243,
                    0.12213881313800812,
                    1
                ],
                "metallicFactor" : 0,
                "roughnessFactor" : 1
            }
        }
    ],
    "meshes" : [
        {
            "name" : "Cylinder",
            "primitives" : [
                {
                    "attributes" : {
                        "POSITION" : 0,
                        "NORMAL" : 1,
                        "TEXCOORD_0" : 2
                    },
                    "indices" : 3,
                    "material" : 0
                }
            ]
        },
        {
            "name" : "Cube.001",
            "primitives" : [
                {
                    "attributes" : {
                        "POSITION" : 4,
                        "NORMAL" : 5,
                        "TEXCOORD_0" : 6
                    },
                    "indices" : 7,
                    "material" : 1
                }
            ]
        }
    ],
    "accessors" : [
        {
            "bufferView" : 0,
            "componentType" : 5126,
            "count" : 261,
            "max" : [
                1,
                -0.11651280522346497,
                1
            ],
            "min" : [
                -1,
                -1,
                -1
            ],
            "type" : "VEC3"
        },
        {
            "bufferView" : 1,
            "componentType" : 5126,
            "count" : 261,
            "type" : "VEC3"
        },
        {
            "bufferView" : 2,
            "componentType" : 5126,
            "count" : 261,
            "type" : "VEC2"
        },
        {
            "bufferView" : 3,
            "componentType" : 5123,
            "count" : 1044,
            "type" : "SCALAR"
        },
        {
            "bufferView" : 4,
            "componentType" : 5126,
            "count" : 18,
            "max" : [
                0.5676060914993286,
                0.5048863887786865,
                1
            ],
            "min" : [
                -1,
                -1,
                -1
            ],
            "type" : "VEC3"
        },
        {
            "bufferView" : 5,
            "componentType" : 5126,
            "count" : 18,
            "type" : "VEC3"
        },
        {
            "bufferView" : 6,
            "componentType" : 5126,
            "count" : 18,
            "type" : "VEC2"
        },
        {
            "bufferView" : 7,
            "componentType" : 5123,
            "count" : 24,
            "type" : "SCALAR"
        }
    ],
    "bufferViews" : [
        {
            "buffer" : 0,
            "byteLength" : 3132,
            "byteOffset" : 0
        },
        {
            "buffer" : 0,
            "byteLength" : 3132,
            "byteOffset" : 3132
        },
        {
            "buffer" : 0,
            "byteLength" : 2088,
            "byteOffset" : 6264
        },
        {
            "buffer" : 0,
            "byteLength" : 2088,
            "byteOffset" : 8352
        },
        {
            "buffer" : 0,
            "byteLength" : 216,
            "byteOffset" : 10440
        },
        {
            "buffer" : 0,
            "byteLength" : 216,
            "byteOffset" : 10656
        },
        {
            "buffer" : 0,
            "byteLength" : 144,
            "byteOffset" : 10872
        },
        {
            "buffer" : 0,
            "byteLength" : 48,
            "byteOffset" : 11016
        }
    ],
    "buffers" : [
        {
            "byteLength" : 11064,
            "uri" : "data:application/octet-stream;base64,"
        }
    ]
}
